<?xml version="1.0" standalone="no"?>
<!DOCTYPE svg PUBLIC "-//W3C//DTD SVG 20010904//EN"
 "http://www.w3.org/TR/2001/REC-SVG-20010904/DTD/svg10.dtd">
<svg version="1.0" xmlns="http://www.w3.org/2000/svg"
 width="6399.000000pt" height="6399.000000pt" viewBox="0 0 6399.000000 6399.000000"
 preserveAspectRatio="xMidYMid meet">
<metadata>
Created by potrace 1.11, written by Peter Selinger 2001-2013
</metadata>
<g transform="translate(0.000000,6399.000000) scale(0.100000,-0.100000)"
fill="#000000" stroke="none">
<path d="M29490 54887 c-3 -3 -104 -7 -225 -11 -121 -4 -236 -9 -255 -11 -19
-1 -100 -6 -179 -10 -80 -4 -156 -8 -170 -10 -14 -2 -75 -6 -136 -10 -60 -3
-121 -8 -135 -10 -14 -2 -65 -6 -115 -9 -49 -4 -106 -9 -125 -11 -19 -2 -62
-7 -95 -10 -80 -7 -164 -16 -195 -20 -14 -2 -54 -6 -90 -10 -81 -8 -514 -63
-595 -75 -33 -5 -80 -12 -105 -15 -41 -6 -201 -30 -260 -40 -14 -2 -95 -16
-180 -30 -1174 -196 -2415 -524 -3573 -946 -405 -148 -1034 -403 -1357 -552
-41 -19 -142 -65 -225 -103 -167 -76 -809 -395 -950 -472 -49 -27 -151 -82
-225 -122 -870 -473 -1773 -1061 -2585 -1683 -270 -207 -639 -504 -791 -637
-22 -19 -53 -46 -70 -60 -50 -43 -169 -145 -174 -150 -3 -3 -66 -59 -140 -125
-74 -66 -137 -122 -140 -125 -3 -3 -32 -29 -65 -59 -243 -221 -791 -759 -1019
-1001 -49 -52 -119 -126 -155 -165 -37 -38 -127 -137 -201 -220 -74 -82 -137
-152 -140 -155 -3 -3 -34 -39 -70 -80 -35 -41 -67 -77 -70 -80 -3 -3 -30 -34
-60 -70 -30 -36 -57 -67 -60 -70 -15 -14 -273 -328 -412 -501 -1822 -2282
-3130 -4944 -3827 -7789 -122 -498 -248 -1117 -311 -1520 -4 -30 -13 -82 -19
-115 -63 -356 -168 -1248 -196 -1680 -3 -49 -8 -108 -10 -130 -2 -22 -7 -98
-10 -170 -4 -71 -8 -148 -11 -170 -26 -284 -25 -1856 1 -2130 2 -22 6 -96 10
-165 6 -132 7 -141 31 -430 25 -310 60 -657 79 -790 2 -14 7 -50 10 -80 4 -30
18 -138 32 -240 14 -102 27 -201 30 -220 2 -19 29 -181 58 -360 320 -1930 913
-3784 1779 -5565 96 -197 313 -618 394 -765 369 -667 647 -1125 1026 -1685
307 -454 725 -1018 1018 -1375 191 -232 442 -532 483 -576 5 -6 37 -42 70 -80
102 -117 293 -327 431 -473 40 -42 86 -92 104 -111 53 -59 520 -528 642 -645
169 -163 372 -353 492 -460 6 -5 49 -44 96 -86 47 -42 155 -136 241 -210 262
-226 340 -291 584 -485 961 -768 1946 -1420 3037 -2010 225 -121 808 -416 993
-501 50 -23 126 -58 170 -78 249 -116 586 -259 903 -386 1389 -556 2814 -951
4317 -1195 77 -13 415 -63 460 -69 28 -3 61 -8 75 -10 14 -2 66 -9 115 -15
169 -20 180 -21 205 -25 14 -2 93 -11 175 -20 83 -8 170 -17 195 -20 100 -11
371 -34 465 -40 55 -4 111 -8 125 -10 14 -2 84 -6 155 -10 72 -4 150 -8 175
-10 25 -2 122 -6 215 -10 94 -3 208 -8 255 -11 122 -7 1067 -7 1240 0 318 13
389 16 485 21 55 3 129 8 165 10 36 2 108 7 160 10 52 3 111 8 130 10 19 2 73
7 120 10 47 3 101 8 120 10 19 2 69 7 110 10 130 11 397 40 635 70 66 8 140
18 165 21 42 5 323 45 415 59 330 50 934 164 1320 250 1578 352 3111 893 4562
1611 l293 145 227 -61 c126 -34 284 -76 353 -94 69 -19 422 -113 785 -211 363
-97 867 -232 1120 -300 1398 -374 1656 -444 2035 -545 228 -62 440 -118 470
-126 30 -8 282 -76 560 -151 278 -74 528 -141 555 -148 119 -32 1136 -304
2035 -545 975 -262 1041 -280 1265 -339 118 -32 1823 -488 2303 -617 134 -36
246 -64 248 -61 2 2 -46 190 -107 418 -61 228 -119 446 -129 484 -10 39 -75
282 -145 540 -69 259 -135 504 -146 545 -70 260 -262 978 -324 1210 -451 1682
-1873 6990 -1894 7070 -16 58 -124 461 -240 897 l-213 792 140 284 c891 1800
1500 3691 1831 5683 34 200 94 611 115 784 12 96 45 388 51 450 3 36 8 81 10
100 2 19 7 64 10 100 3 36 8 85 10 110 2 25 7 79 10 120 8 113 15 199 20 255
2 28 7 106 11 175 3 69 7 142 9 164 27 285 27 1857 0 2146 -1 19 -6 96 -10
170 -4 74 -8 146 -10 160 -2 14 -6 75 -10 135 -4 61 -9 118 -10 127 -2 9 -6
63 -10 120 -3 57 -8 110 -10 118 -2 8 -7 49 -10 90 -5 68 -29 295 -40 380 -3
19 -9 74 -15 122 -331 2751 -1264 5483 -2693 7878 -296 497 -708 1124 -984
1498 -29 39 -79 107 -110 150 -316 432 -859 1103 -1153 1427 -20 22 -65 72
-100 110 -78 87 -103 114 -270 295 -143 154 -764 779 -916 920 -103 96 -284
263 -359 330 -27 25 -52 47 -55 50 -5 5 -139 123 -195 171 -153 132 -209 180
-335 285 -1224 1016 -2475 1834 -3879 2538 -270 136 -861 416 -876 416 -3 0
-35 14 -72 31 -395 182 -1196 487 -1788 683 -976 321 -2090 595 -3040 746 -71
11 -157 25 -190 30 -108 18 -119 20 -200 30 -44 6 -91 13 -105 15 -29 5 -573
73 -640 80 -58 6 -130 13 -200 20 -30 3 -100 9 -155 14 -55 6 -136 13 -180 16
-44 3 -102 8 -130 10 -27 2 -95 7 -150 10 -55 3 -120 8 -145 10 -25 2 -115 7
-200 10 -85 4 -175 9 -200 12 -57 6 -1364 15 -1370 10z m1120 -4141 c118 -4
233 -9 255 -11 22 -2 99 -7 170 -10 72 -4 146 -8 165 -10 19 -2 73 -6 120 -10
47 -3 130 -10 185 -16 55 -5 123 -11 150 -14 68 -6 323 -34 360 -40 60 -8 191
-25 240 -30 28 -4 75 -10 105 -15 30 -5 75 -12 100 -15 282 -39 795 -136 1170
-221 2507 -567 4837 -1723 6800 -3373 69 -58 139 -117 155 -132 17 -15 68 -60
115 -100 47 -40 105 -92 130 -115 25 -22 77 -69 115 -104 207 -188 673 -645
816 -800 18 -19 64 -69 103 -110 72 -77 191 -207 286 -315 29 -33 67 -76 84
-95 17 -19 56 -64 86 -100 30 -36 57 -67 60 -70 30 -29 283 -340 417 -512 87
-111 389 -514 425 -568 10 -14 47 -68 84 -120 119 -171 429 -641 528 -804 98
-160 346 -583 346 -591 0 -2 13 -27 30 -55 128 -217 409 -778 575 -1145 147
-327 232 -529 345 -821 473 -1220 805 -2530 965 -3816 13 -99 15 -121 20 -155
2 -21 11 -108 20 -193 8 -85 17 -173 20 -195 2 -22 7 -78 10 -125 3 -47 8 -98
10 -115 2 -16 7 -86 11 -155 3 -69 7 -138 9 -155 26 -233 26 -1663 0 -1828 -2
-12 -6 -78 -10 -147 -4 -69 -8 -138 -10 -155 -2 -16 -6 -70 -10 -120 -3 -49
-8 -103 -10 -120 -3 -16 -9 -84 -15 -150 -6 -66 -13 -131 -15 -145 -2 -14 -6
-52 -10 -85 -80 -735 -252 -1627 -461 -2395 -250 -915 -542 -1706 -984 -2665
-40 -88 -294 -596 -365 -730 -29 -55 -103 -199 -165 -320 -62 -121 -141 -274
-175 -340 -34 -66 -111 -214 -170 -329 l-108 -210 12 -50 c7 -28 17 -64 22
-81 7 -23 192 -713 222 -830 20 -79 329 -1227 337 -1255 6 -19 51 -188 101
-375 50 -187 140 -524 201 -750 60 -225 119 -444 130 -485 10 -41 60 -226 109
-410 50 -184 99 -366 109 -405 10 -38 132 -492 270 -1008 138 -517 249 -941
246 -944 -3 -3 -580 149 -1283 337 -703 188 -1300 348 -1328 356 -27 7 -261
70 -520 139 -258 70 -501 135 -540 145 -38 10 -711 190 -1495 400 l-1425 382
-100 -51 c-215 -110 -813 -418 -1070 -551 -467 -242 -775 -392 -1145 -555
-1342 -592 -2762 -1001 -4200 -1209 -201 -29 -378 -52 -465 -61 -33 -4 -71 -8
-85 -10 -14 -2 -79 -9 -145 -15 -66 -6 -133 -12 -150 -15 -16 -2 -73 -7 -125
-10 -52 -4 -105 -8 -116 -10 -12 -2 -78 -6 -145 -10 -68 -4 -135 -9 -149 -10
-223 -26 -1559 -26 -1865 0 -16 1 -86 6 -154 10 -69 4 -134 8 -145 10 -12 2
-64 6 -116 10 -52 4 -108 8 -125 10 -16 2 -61 6 -100 9 -38 4 -86 8 -105 11
-19 2 -60 7 -90 10 -54 6 -265 31 -325 40 -16 2 -52 7 -80 10 -27 4 -60 8 -72
10 -12 2 -57 9 -100 15 -806 117 -1658 311 -2443 556 -2213 691 -4257 1854
-5990 3408 -446 401 -995 954 -1336 1346 -21 25 -41 47 -44 50 -3 3 -32 37
-65 75 -33 39 -62 72 -65 75 -3 3 -39 46 -80 95 -41 50 -78 92 -81 95 -18 15
-351 440 -477 608 -1825 2431 -2913 5296 -3172 8352 -16 188 -18 224 -25 355
-4 66 -8 134 -10 150 -24 221 -24 1417 0 1690 1 17 6 93 10 169 4 77 8 147 10
155 1 9 6 66 9 126 4 61 9 117 11 125 2 8 7 55 10 104 4 50 8 97 10 105 1 9 6
48 9 86 20 195 47 412 87 680 301 2041 1000 4026 2042 5800 330 562 755 1190
1136 1680 268 346 589 730 801 960 26 28 98 106 161 175 193 213 678 693 953
945 914 839 1985 1604 3116 2228 288 158 690 360 1015 509 1016 466 2039 812
3180 1076 103 24 670 138 730 147 22 3 103 16 180 30 284 48 779 115 1045 140
198 18 256 23 345 30 39 3 93 8 120 10 28 2 106 7 175 11 69 3 141 8 160 9 19
2 148 7 285 11 138 3 251 7 252 8 5 4 680 -2 863 -8z"/>
<path d="M29248 43755 c-2 -2 -107 -6 -233 -10 -224 -6 -264 -8 -505 -20 -140
-8 -305 -18 -465 -30 -186 -13 -224 -16 -260 -20 -22 -2 -71 -7 -110 -10 -38
-4 -81 -8 -95 -10 -14 -2 -59 -7 -100 -10 -41 -3 -82 -8 -90 -10 -8 -2 -49 -7
-90 -10 -41 -4 -83 -9 -94 -11 -10 -2 -44 -6 -75 -9 -31 -4 -67 -8 -81 -10
-14 -2 -48 -7 -76 -10 -28 -3 -59 -7 -70 -9 -10 -2 -44 -7 -74 -11 -30 -4 -64
-9 -75 -11 -10 -2 -37 -6 -60 -9 -22 -3 -78 -12 -125 -20 -87 -15 -133 -22
-185 -30 -16 -2 -57 -9 -90 -15 -33 -6 -72 -13 -86 -15 -14 -2 -75 -13 -135
-24 -60 -11 -127 -23 -149 -26 -22 -3 -46 -8 -54 -11 -8 -2 -30 -7 -50 -10
-138 -19 -235 -88 -262 -186 -15 -54 -19 -245 -6 -303 3 -11 8 -40 12 -65 4
-25 9 -52 10 -61 6 -31 21 -164 30 -269 2 -25 7 -67 9 -95 3 -27 8 -79 11
-115 5 -60 9 -102 21 -235 9 -110 15 -172 19 -215 3 -25 7 -72 10 -105 3 -33
8 -76 10 -95 3 -19 7 -60 10 -90 3 -30 7 -68 10 -85 5 -35 12 -80 20 -150 3
-27 11 -77 17 -110 5 -33 12 -71 14 -85 2 -14 12 -74 23 -135 28 -154 30 -164
42 -220 6 -27 13 -61 15 -75 2 -14 10 -50 16 -80 6 -30 13 -62 14 -70 3 -13
13 -65 19 -95 2 -6 15 -64 30 -130 15 -66 29 -129 31 -140 4 -22 53 -241 59
-265 2 -8 13 -55 24 -105 11 -49 32 -137 46 -195 15 -58 28 -116 31 -130 2
-14 29 -123 58 -242 59 -241 82 -291 151 -330 37 -21 51 -23 195 -23 146 1
324 10 338 19 4 2 41 7 82 11 100 9 115 11 260 30 69 8 143 18 165 21 22 2 72
9 110 14 39 6 88 12 110 15 22 3 54 7 70 10 66 11 92 15 135 20 39 4 127 16
220 30 80 12 182 25 230 30 30 4 66 8 80 10 26 4 85 10 205 21 39 3 86 7 105
9 243 24 1425 24 2125 0 494 -17 888 -34 945 -40 19 -2 73 -7 120 -10 47 -3
99 -8 115 -10 17 -2 66 -6 110 -10 44 -4 89 -9 100 -11 11 -2 49 -6 85 -9 36
-3 76 -8 90 -10 14 -3 48 -7 75 -10 28 -3 68 -8 90 -11 22 -2 58 -7 80 -10 22
-2 56 -6 75 -9 45 -6 101 -13 170 -20 30 -4 68 -9 85 -11 16 -3 52 -7 80 -9
27 -3 66 -7 85 -10 19 -2 89 -11 155 -20 66 -8 129 -17 140 -19 11 -2 43 -7
70 -10 66 -9 113 -17 139 -22 19 -5 69 -12 181 -29 22 -3 47 -8 55 -10 13 -4
143 -29 260 -51 86 -16 325 -69 540 -120 85 -20 172 -41 193 -45 70 -17 112
-27 287 -74 96 -26 182 -48 190 -50 195 -51 665 -191 945 -281 170 -55 512
-171 540 -183 11 -5 121 -46 245 -91 370 -135 776 -301 1177 -479 165 -73 217
-97 408 -186 79 -37 158 -62 336 -105 68 -17 131 -33 140 -36 9 -2 16 1 16 8
1 11 38 121 60 178 4 8 7 17 8 20 1 3 4 12 8 20 57 139 144 435 273 930 8 30
28 106 45 169 17 63 32 121 34 130 2 9 11 43 20 76 16 61 143 557 150 585 1 8
8 33 13 55 6 22 13 51 16 65 3 14 19 81 36 150 17 69 37 156 45 194 8 37 17
71 19 75 2 3 7 22 10 41 8 46 14 78 20 98 3 9 7 28 10 42 3 14 21 104 40 200
19 96 36 189 39 205 3 17 14 86 26 155 11 69 23 145 26 170 3 25 8 52 10 60 2
8 7 44 10 80 3 36 8 72 10 80 2 8 7 40 10 70 3 30 7 66 10 80 2 14 7 52 10 85
3 33 8 80 11 105 3 25 7 61 10 80 6 57 5 227 -2 247 -43 120 -88 160 -266 237
-32 14 -58 22 -58 19 0 -3 -6 -1 -12 5 -7 5 -29 14 -48 20 -19 6 -154 53 -300
106 -146 53 -272 99 -280 101 -8 2 -53 18 -100 35 -619 229 -1611 566 -1959
665 -154 44 -571 153 -651 170 -8 2 -46 11 -85 20 -38 9 -78 18 -88 20 -10 2
-26 6 -35 9 -9 3 -28 7 -42 10 -14 2 -176 41 -360 86 -550 133 -984 231 -1124
254 -16 3 -52 10 -80 15 -28 6 -62 12 -76 15 -14 2 -63 11 -110 20 -47 8 -98
18 -115 21 -16 2 -41 7 -55 10 -13 2 -42 7 -65 11 -22 3 -47 7 -55 9 -8 2 -40
7 -70 11 -30 4 -57 9 -60 9 -3 1 -27 5 -55 9 -27 4 -72 11 -100 16 -27 5 -68
11 -90 14 -22 3 -71 9 -110 15 -38 5 -95 12 -125 16 -30 3 -66 8 -80 10 -14 2
-54 7 -90 10 -36 4 -73 9 -82 10 -9 2 -57 7 -105 10 -48 4 -95 9 -104 10 -9 2
-52 6 -95 10 -43 3 -92 8 -109 10 -16 2 -66 6 -110 10 -44 3 -93 8 -110 10
-16 2 -66 6 -110 10 -44 3 -100 8 -125 10 -25 3 -74 8 -110 11 -74 7 -112 11
-190 19 -66 7 -113 11 -205 20 -38 3 -86 8 -105 10 -117 14 -377 32 -605 41
-158 7 -1881 15 -1887 9z"/>
<path d="M24500 43163 c-176 -25 -1160 -273 -1515 -383 -252 -77 -667 -221
-1409 -486 -314 -113 -578 -207 -586 -209 -19 -4 -247 -86 -317 -113 -218 -84
-351 -234 -361 -410 -4 -73 0 -95 38 -227 21 -73 50 -182 55 -205 3 -14 7 -36
10 -50 3 -14 10 -47 15 -75 5 -27 11 -63 14 -80 6 -36 36 -219 41 -255 6 -40
15 -100 25 -160 5 -30 12 -69 15 -86 2 -17 7 -47 9 -67 7 -52 16 -105 26 -157
5 -25 12 -63 15 -85 3 -22 7 -47 10 -55 2 -8 6 -31 9 -50 11 -70 69 -343 107
-505 11 -49 22 -97 24 -105 2 -8 13 -53 24 -100 12 -47 24 -98 27 -114 3 -16
7 -32 9 -36 2 -4 6 -20 9 -36 3 -16 19 -83 36 -149 17 -66 33 -129 35 -140 9
-39 94 -371 120 -465 15 -52 28 -103 30 -113 7 -34 127 -449 182 -632 87 -288
267 -822 347 -1028 13 -34 40 -105 60 -157 19 -52 41 -108 47 -125 7 -16 13
-34 15 -40 6 -22 248 -645 342 -880 115 -288 301 -729 361 -858 22 -49 41 -90
41 -92 0 -3 18 -44 41 -92 22 -49 48 -104 56 -123 35 -77 327 -663 391 -785
95 -180 158 -297 207 -385 23 -41 59 -106 80 -145 21 -38 78 -141 126 -227 49
-87 89 -162 89 -168 0 -5 4 -10 9 -10 5 0 11 -8 14 -17 3 -10 19 -40 35 -68
61 -107 366 -645 415 -735 56 -102 263 -444 310 -513 26 -38 47 -70 47 -73 0
-4 49 -76 164 -239 66 -93 534 -719 580 -776 12 -14 30 -38 41 -53 11 -15 70
-92 130 -171 61 -78 151 -196 200 -260 50 -65 95 -123 100 -129 6 -6 23 -29
40 -51 34 -46 32 -43 88 -115 24 -30 151 -194 282 -365 132 -170 261 -334 289
-362 85 -91 162 -113 258 -77 35 14 244 144 283 176 6 5 80 59 165 120 193
137 550 406 735 552 142 113 401 322 421 341 6 5 30 26 54 45 24 19 65 53 90
75 56 48 285 241 545 458 324 271 817 752 946 922 95 127 122 171 113 187 -16
28 -435 567 -469 604 -5 6 -26 31 -46 55 -20 24 -52 62 -70 85 -19 22 -47 57
-64 78 -16 21 -57 73 -91 115 -33 42 -116 148 -182 236 -67 88 -125 165 -130
170 -4 6 -35 48 -70 95 -34 47 -65 90 -70 95 -4 6 -30 42 -57 80 -27 39 -78
111 -113 160 -108 153 -423 631 -537 815 -59 96 -118 191 -130 210 -34 54
-110 180 -136 226 -55 93 -141 240 -149 254 -6 8 -48 83 -93 165 -136 244
-199 359 -284 520 -77 145 -352 695 -410 820 -23 50 -62 133 -86 185 -24 52
-70 154 -101 225 -32 72 -63 144 -71 160 -64 145 -228 552 -305 760 -128 347
-197 548 -295 860 -26 83 -54 170 -62 194 -15 48 -132 447 -138 471 -2 8 -27
98 -55 200 -28 102 -53 192 -55 200 -4 14 -38 146 -70 265 -12 46 -41 159 -50
195 -2 8 -29 112 -59 230 -30 118 -57 226 -60 240 -3 14 -12 54 -20 90 -64
282 -87 389 -100 463 -15 87 -29 160 -41 222 -8 39 -16 84 -18 100 -3 17 -10
57 -16 90 -6 33 -13 76 -16 95 -3 19 -7 46 -10 60 -2 14 -6 41 -9 60 -9 71
-19 136 -22 155 -2 11 -6 43 -9 70 -4 28 -8 61 -10 75 -2 14 -7 50 -10 80 -3
30 -8 66 -10 80 -2 14 -6 54 -10 90 -4 36 -8 76 -10 90 -2 14 -6 59 -10 100
-3 41 -8 91 -10 110 -3 19 -7 69 -10 110 -3 41 -7 95 -10 120 -2 25 -7 75 -10
113 -27 333 -98 446 -284 451 -42 1 -87 1 -101 -1z"/>
<path d="M34631 38019 c-31 -19 -76 -80 -104 -142 -19 -43 -41 -98 -176 -447
-50 -129 -95 -243 -101 -252 -5 -10 -10 -22 -10 -27 0 -5 -8 -26 -17 -47 -9
-22 -18 -43 -19 -49 -5 -21 -166 -403 -199 -473 -19 -39 -35 -74 -35 -76 0 -2
-26 -60 -59 -128 -32 -68 -69 -145 -81 -173 -32 -71 -324 -657 -400 -800 -61
-117 -92 -174 -167 -312 -20 -38 -46 -86 -58 -108 -33 -62 -359 -626 -396
-685 -5 -8 -58 -94 -117 -190 -205 -331 -550 -850 -646 -971 -12 -14 -28 -36
-36 -49 -97 -145 -590 -779 -839 -1080 -53 -63 -103 -124 -112 -135 -34 -41
-152 -181 -172 -205 -426 -499 -554 -637 -942 -1025 -243 -243 -380 -376 -596
-575 -15 -14 -84 -79 -154 -145 -70 -66 -139 -131 -154 -144 -14 -13 -69 -65
-122 -115 -114 -108 -151 -142 -244 -221 -38 -33 -72 -63 -75 -67 -3 -4 -22
-20 -42 -35 -20 -16 -82 -66 -139 -113 -58 -47 -130 -105 -163 -130 -125 -97
-295 -226 -317 -240 -12 -8 -34 -24 -48 -36 -14 -11 -80 -60 -146 -107 -66
-47 -124 -90 -130 -94 -5 -5 -64 -46 -130 -93 -66 -46 -125 -89 -132 -95 -6
-5 -42 -32 -80 -58 -37 -27 -144 -104 -238 -173 -93 -69 -199 -145 -235 -169
-36 -25 -78 -56 -94 -70 -16 -14 -33 -25 -38 -25 -4 0 -8 -3 -8 -7 0 -8 64
-86 134 -163 17 -19 77 -87 133 -150 87 -99 222 -234 863 -860 318 -311 691
-672 935 -905 339 -324 400 -382 465 -440 36 -32 83 -74 105 -94 37 -34 282
-240 400 -336 27 -22 99 -82 159 -132 123 -104 95 -95 293 -95 l92 0 63 48
c35 27 70 54 78 61 8 7 51 39 95 71 232 173 560 426 690 534 64 52 199 168
255 217 36 32 85 76 110 97 24 21 60 53 79 69 30 27 67 59 176 160 17 15 64
58 105 95 41 37 91 83 111 101 20 19 87 82 150 140 330 308 521 492 789 760
304 304 463 470 695 724 16 17 53 57 84 91 31 33 70 76 86 95 37 40 113 126
205 229 37 41 96 109 131 150 35 41 69 80 75 85 6 6 35 39 65 75 30 36 57 67
60 70 5 5 263 309 339 400 20 25 62 74 92 110 67 80 321 396 405 505 93 119
216 280 233 305 8 12 22 30 30 41 8 10 36 47 61 81 25 35 70 97 100 138 31 41
71 97 90 125 35 50 93 132 107 150 28 37 266 390 414 615 273 417 683 1082
825 1340 16 30 40 73 53 95 12 22 36 65 52 95 16 30 33 62 38 70 5 8 36 65 68
125 56 105 93 176 247 470 85 161 492 976 533 1065 16 36 55 119 87 185 83
177 85 181 195 430 56 127 107 244 115 260 7 17 31 77 54 135 23 58 46 114 51
125 12 27 138 364 183 490 94 266 100 409 21 513 -56 73 -137 119 -474 270
-25 11 -99 44 -165 72 -66 29 -147 64 -180 79 -54 25 -134 60 -222 97 -18 8
-48 20 -65 28 -104 46 -488 206 -494 206 -3 0 -29 11 -57 24 -85 39 -510 200
-723 274 -282 99 -725 239 -1124 355 -47 14 -137 41 -200 60 -265 81 -340 92
-399 56z"/>
</g>
</svg>
